<svg t="1751543795025" class="icon" viewBox="0 0 1024 1024" version="1.1" xmlns="http://www.w3.org/2000/svg" p-id="3675" width="48" height="48">
  <!-- 外圈路径 - 保持不变，颜色为 #E8E9EB -->
  <path d="M512 74.666667C270.933333 74.666667 74.666667 270.933333 74.666667 512S270.933333 949.333333 512 949.333333 949.333333 753.066667 949.333333 512 753.066667 74.666667 512 74.666667z m0 810.666666c-204.8 0-373.333333-168.533333-373.333333-373.333333S307.2 138.666667 512 138.666667 885.333333 307.2 885.333333 512 716.8 885.333333 512 885.333333z" fill="#E8E9EB" p-id="3676"></path>

  <!-- 原风格向上箭头 - 路径数据经过微调以使其更细 -->
  <path transform="scale(1, -1) translate(0, -1024)"
        d="M650 505.2l-106 99.466667V360c0-14.066667-12.933333-28-28-28s-28 14.933333-28 28v244.333334l-106-99.466667c-10.8-10.8-28.133333-8.666667-36.8 2.133333-10.8 10.8-8.666667 28.133333 2.133333 36.8l151.333334 140.666667c5.4 5.4 12.933333 7.533333 18.333333 7.533333s12.933333-2.133333 18.333333-7.533333l151.333334-140.666667c10.8-10.8 10.8-28 2.133333-36.8-10.8-10.8-28-12.933333-36.8-2.133333z"
        fill="#E8E9EB" p-id="3677"></path>
</svg>